# xmcd CD database file
#
# Track frame offsets:
#	150
#	26324
#	48525
#	84768
#	159002
#	172598
#	218484
#	242091
#	259490
#	308720
#
# Disc length: 4501 seconds
#
# Revision: 0
# Processed by: cddbd v1.5.2PL0 Copyright (c) Steve Scherf et al.
# Submitted via: CDex 1.51
#
DISCID=6911930a
DTITLE=Booker Ervin with Don Patterson - Hip Cake Walk
DYEAR=2010
DGENRE=Jazz
TTITLE0=Donald Duck
TTITLE1=Sister Ruth
TTITLE2=Rosetta
TTITLE3=Hip Cake Walk
TTITLE4=Under The Boardwalk
TTITLE5=S 'Bout Time
TTITLE6=Up In Betty's Room
TTITLE7=Oleo
TTITLE8=When Johnny Comes Marching Home
TTITLE9=Love Me With All Your Heart
EXTD=YEAR: 2010
EXTT0=
EXTT1=
EXTT2=
EXTT3=
EXTT4=
EXTT5=
EXTT6=
EXTT7=
EXTT8=
EXTT9=
PLAYORDER=
